<?xml version="1.0" encoding="UTF-8" standalone="no"?><!DOCTYPE svg PUBLIC "-//W3C//DTD SVG 1.1//EN" "http://www.w3.org/Graphics/SVG/1.1/DTD/svg11.dtd"><svg width="100%" height="100%" viewBox="0 0 69 50" version="1.1" xmlns="http://www.w3.org/2000/svg" xmlns:xlink="http://www.w3.org/1999/xlink" xml:space="preserve" xmlns:serif="http://www.serif.com/" style="fill-rule:evenodd;clip-rule:evenodd;stroke-linejoin:round;stroke-miterlimit:1.41421;"><rect x="0" y="0" width="68.744" height="45.694" style="fill:url(#_Linear1);"/><circle cx="12.053" cy="14.05" r="11.537" style="fill:url(#_Linear2);"/><circle cx="47.673" cy="8.773" r="6.558" style="fill:url(#_Linear3);"/><circle cx="63.848" cy="4.922" r="3.435" style="fill:url(#_Linear4);"/><path d="M56.408,10.178l4.513,0l2.497,0.461l0,35.055l-7.01,0l0,-35.516Z" style="fill:#3b696f;"/><rect x="32.531" y="16.223" width="4.766" height="5.003" style="fill:#f7eaea;"/><rect x="5.325" y="10.15" width="54.899" height="35.545" style="fill:#4e8992;"/><rect x="6.962" y="12.051" width="3.728" height="4.435" style="fill:#d7ecf1;"/><g><rect x="6.962" y="18.84" width="3.728" height="4.435" style="fill:#d7ecf1;"/><rect x="6.962" y="25.628" width="3.728" height="4.435" style="fill:#d7ecf1;"/><rect x="6.962" y="32.416" width="3.728" height="4.435" style="fill:#d7ecf1;"/><rect x="6.962" y="39.204" width="3.728" height="4.435" style="fill:#d7ecf1;"/></g><rect x="55.061" y="12.051" width="3.728" height="4.435" style="fill:#d7ecf1;"/><rect x="49.049" y="12.051" width="3.728" height="4.435" style="fill:#d7ecf1;"/><rect x="43.036" y="12.051" width="3.728" height="4.435" style="fill:#d7ecf1;"/><rect x="37.024" y="12.051" width="3.728" height="4.435" style="fill:#d7ecf1;"/><rect x="31.012" y="12.051" width="3.728" height="4.435" style="fill:#d7ecf1;"/><rect x="23.072" y="20.691" width="19.609" height="25.003" style="fill:#d7ecf1;"/><rect x="24.999" y="12.051" width="3.728" height="4.435" style="fill:#d7ecf1;"/><rect x="18.987" y="12.051" width="3.728" height="4.435" style="fill:#d7ecf1;"/><path d="M23.038,20.69l0.95,0l0.134,0.325l0,24.679l-1.084,0l0,-25.004Z" style="fill:#3b696f;"/><path d="M23.423,21.778l0,-0.953l0.25,-0.134l19.007,0l0,1.087l-19.257,0Z" style="fill:#3b696f;"/><rect x="12.974" y="12.051" width="3.728" height="4.435" style="fill:#d7ecf1;"/><rect x="55.061" y="18.84" width="3.728" height="4.435" style="fill:#d7ecf1;"/><rect x="55.061" y="25.628" width="3.728" height="4.435" style="fill:#d7ecf1;"/><rect x="55.061" y="32.416" width="3.728" height="4.435" style="fill:#d7ecf1;"/><rect x="55.061" y="39.204" width="3.728" height="4.435" style="fill:#d7ecf1;"/><g><rect x="31.857" y="2.802" width="2.037" height="6.434" style="fill:#0e381c;"/><path d="M29.659,5.001l0,2.037l6.434,0l0,-2.037l-6.434,0Z" style="fill:#0e381c;"/></g><g><rect x="36.679" y="28.986" width="2.818" height="3.352" style="fill:#69b8bf;"/><rect x="32.135" y="28.986" width="2.818" height="3.352" style="fill:#69b8bf;"/><rect x="27.591" y="28.986" width="2.818" height="3.352" style="fill:#69b8bf;"/></g><g><rect x="36.653" y="24.417" width="2.818" height="3.352" style="fill:#69b8bf;"/><rect x="32.135" y="24.39" width="2.818" height="3.352" style="fill:#69b8bf;"/><rect x="27.591" y="24.39" width="2.818" height="3.352" style="fill:#69b8bf;"/></g><g><rect x="36.679" y="37.789" width="2.818" height="3.352" style="fill:#69b8bf;"/><rect x="32.135" y="37.789" width="2.818" height="3.352" style="fill:#69b8bf;"/><rect x="27.591" y="37.789" width="2.818" height="3.352" style="fill:#69b8bf;"/></g><g><rect x="36.679" y="42.342" width="2.818" height="3.352" style="fill:#69b8bf;"/><rect x="32.135" y="42.342" width="2.818" height="3.352" style="fill:#69b8bf;"/><rect x="27.591" y="42.342" width="2.818" height="3.352" style="fill:#69b8bf;"/></g><g><rect x="36.653" y="33.219" width="2.818" height="3.352" style="fill:#69b8bf;"/><rect x="32.135" y="33.193" width="2.818" height="3.352" style="fill:#69b8bf;"/><rect x="27.591" y="33.193" width="2.818" height="3.352" style="fill:#69b8bf;"/></g><rect x="0" y="45.694" width="68.7" height="4.042" style="fill:#31565b;"/><path d="M31.315,47.305l0.003,-1.583l-3.682,-0.007l-0.003,1.583l3.682,0.007Z" style="fill:#583868;"/><path d="M5.038,38.209l-1.999,0l0,-8.893l0.001,0l0,-0.554c0,-1.019 0.9,-1.846 2.009,-1.846l4.018,0c1.109,0 2.009,0.827 2.009,1.846l0,0.122l5.136,1.733l-0.469,1.389l-4.659,-1.572l0,7.775l-1.314,0l0,8.246l-1.172,0l0,-8.246l-2.37,0l-1.434,8.311l-1.155,-0.199l1.399,-8.112Zm2.024,-16.517c1.214,0 2.2,0.906 2.2,2.022c0,1.115 -0.986,2.021 -2.2,2.021c-1.215,0 -2.201,-0.906 -2.201,-2.021c0,-1.116 0.986,-2.022 2.201,-2.022Z" style="fill:#6b2207;"/><path d="M29.905,40.303l0,0l-0.014,7.002l-2.258,-0.004l0.008,-3.826c-0.801,2.372 -3.046,4.082 -5.687,4.082c-3.311,0 -6,-2.688 -6,-6c0,-0.898 0.198,-1.75 0.552,-2.515l-1.68,-11.69c-0.052,-0.361 0.199,-0.695 0.559,-0.747c0.361,-0.052 0.695,0.199 0.747,0.559l1.475,10.26c0.023,-0.025 0.047,-0.049 0.071,-0.073l0,-6.356l0.001,0l0,-0.433c0,-0.795 0.9,-1.441 2.009,-1.441l4.018,0c1.109,0 2.009,0.646 2.009,1.441l0,0.433l0.008,0l0,4.3l4.157,0.008l-0.003,1.583l-4.154,-0.009l0,0.013c0.245,0.198 0.474,0.415 0.685,0.648c0.011,0 0.023,0 0.034,0l2.545,0c0.506,0 0.918,0.411 0.918,0.917l0,1.836c0,0.004 0,0.008 0,0.012Zm-7.951,-2.246c1.932,0 3.5,1.569 3.5,3.5c0,1.932 -1.568,3.5 -3.5,3.5c-1.931,0 -3.5,-1.568 -3.5,-3.5c0,-1.931 1.569,-3.5 3.5,-3.5Zm0.742,-13.856c1.214,0 2.2,0.906 2.2,2.021c0,1.116 -0.986,2.021 -2.2,2.021c-1.214,0 -2.2,-0.905 -2.2,-2.021c0,-1.115 0.986,-2.021 2.2,-2.021Z" style="fill:#6b2207;"/><defs><linearGradient id="_Linear1" x1="0" y1="0" x2="1" y2="0" gradientUnits="userSpaceOnUse" gradientTransform="matrix(-8.86719,40.3927,-40.3927,-8.86719,60.3522,5.41234)"><stop offset="0" style="stop-color:#4cc192;stop-opacity:1"/><stop offset="1" style="stop-color:#fefe85;stop-opacity:1"/></linearGradient><linearGradient id="_Linear2" x1="0" y1="0" x2="1" y2="0" gradientUnits="userSpaceOnUse" gradientTransform="matrix(15.3948,15.9746,15.9746,-15.3948,5.00857,7.58827)"><stop offset="0" style="stop-color:#fdfa71;stop-opacity:0.305882"/><stop offset="0.38" style="stop-color:#fefca7;stop-opacity:0.215686"/><stop offset="1" style="stop-color:#fff;stop-opacity:0.0705882"/></linearGradient><linearGradient id="_Linear3" x1="0" y1="0" x2="1" y2="0" gradientUnits="userSpaceOnUse" gradientTransform="matrix(8.75109,9.08066,9.08066,-8.75109,43.6683,5.09998)"><stop offset="0" style="stop-color:#cafd71;stop-opacity:0.152941"/><stop offset="1" style="stop-color:#fff;stop-opacity:0.152941"/></linearGradient><linearGradient id="_Linear4" x1="0" y1="0" x2="1" y2="0" gradientUnits="userSpaceOnUse" gradientTransform="matrix(4.5834,4.75601,4.75601,-4.5834,61.7509,2.99859)"><stop offset="0" style="stop-color:#cafd71;stop-opacity:0"/><stop offset="1" style="stop-color:#fff;stop-opacity:0.462745"/></linearGradient></defs></svg>