<?xml version="1.0" encoding="UTF-8" standalone="no"?><!DOCTYPE svg PUBLIC "-//W3C//DTD SVG 1.1//EN" "http://www.w3.org/Graphics/SVG/1.1/DTD/svg11.dtd"><svg width="100%" height="100%" viewBox="0 0 69 50" version="1.1" xmlns="http://www.w3.org/2000/svg" xmlns:xlink="http://www.w3.org/1999/xlink" xml:space="preserve" xmlns:serif="http://www.serif.com/" style="fill-rule:evenodd;clip-rule:evenodd;stroke-linejoin:round;stroke-miterlimit:1.41421;"><rect x="0" y="0" width="68.744" height="45.694" style="fill:url(#_Linear1);"/><g id="Background"><circle cx="10.487" cy="8.909" r="15.12" style="fill:url(#_Linear2);"/><circle cx="53.295" cy="8.773" r="6.558" style="fill:url(#_Linear3);"/><circle cx="69.471" cy="4.922" r="3.435" style="fill:url(#_Linear4);"/></g><rect x="3.924" y="42.567" width="59.583" height="3.127" style="fill:#4e8992;"/><rect x="7.265" y="38.859" width="52.901" height="3.127" style="fill:#4e8992;"/><rect x="10.606" y="35.151" width="46.218" height="3.127" style="fill:#4e8992;"/><path d="M25.435,35.088l0,-20.184l-4.064,0l0,20.184l4.064,0Z" style="fill:#4e8992;"/><path d="M34.004,2.817l24.32,11.888l-48.641,0l24.321,-11.888Z" style="fill:#4e8992;"/><path d="M34.004,4.229l18.543,9.064l-37.087,0l18.544,-9.064Z" style="fill:#3b696f;"/><g id="Cards"><g id="Foreground"><path d="M18.281,35.088l0,-20.184l-4.065,0l0,20.184l4.065,0Z" style="fill:#4e8992;"/><path d="M18.281,35.088l0,-20.184l-0.862,0l0,20.184l0.862,0Z" style="fill:#3b696f;"/><path d="M25.435,35.088l0,-20.184l-0.861,0l0,20.184l0.861,0Z" style="fill:#3b696f;"/><path d="M32.589,35.088l0,-20.184l-4.064,0l0,20.184l4.064,0Z" style="fill:#4e8992;"/><path d="M39.744,35.088l0,-20.184l-4.065,0l0,20.184l4.065,0Z" style="fill:#4e8992;"/><path d="M46.898,35.088l0,-20.184l-4.065,0l0,20.184l4.065,0Z" style="fill:#4e8992;"/><path d="M54.052,35.088l0,-20.184l-4.065,0l0,20.184l4.065,0Z" style="fill:#4e8992;"/><rect x="0.044" y="45.694" width="68.7" height="4.042" style="fill:#31565b;"/><path d="M32.589,35.088l0,-20.184l-0.861,0l0,20.184l0.861,0Z" style="fill:#3b696f;"/><path d="M39.744,35.088l0,-20.184l-0.862,0l0,20.184l0.862,0Z" style="fill:#3b696f;"/><path d="M46.898,35.088l0,-20.184l-0.862,0l0,20.184l0.862,0Z" style="fill:#3b696f;"/><path d="M54.052,35.088l0,-20.184l-0.862,0l0,20.184l0.862,0Z" style="fill:#3b696f;"/></g><g><path d="M61.854,47.557l0,-44.04l-0.63,0l0,44.04l0.63,0Z" style="fill:#3b696f;"/><g><path d="M61.219,3.559l0,5.097l-17.832,3.543l-0.974,-4.904l18.806,-3.736Z"/><path d="M61.219,8.656l0,5.098l-16.841,3.346l-0.974,-4.905l17.815,-3.539Z" style="fill:#c93a35;"/><path d="M61.219,13.754l0,5.098l-15.883,3.155l-0.974,-4.904l16.857,-3.349Z" style="fill:#f7c347;"/></g></g></g><defs><linearGradient id="_Linear1" x1="0" y1="0" x2="1" y2="0" gradientUnits="userSpaceOnUse" gradientTransform="matrix(-26.6026,-56.5165,56.5165,-26.6026,70.6148,55.2018)"><stop offset="0" style="stop-color:#4cc192;stop-opacity:1"/><stop offset="1" style="stop-color:#fefe85;stop-opacity:1"/></linearGradient><linearGradient id="_Linear2" x1="0" y1="0" x2="1" y2="0" gradientUnits="userSpaceOnUse" gradientTransform="matrix(59.4534,59.4534,-59.4534,59.4534,1.25491,0.440464)"><stop offset="0" style="stop-color:#18579f;stop-opacity:0.345098"/><stop offset="0.38" style="stop-color:#fefca7;stop-opacity:0.215686"/><stop offset="1" style="stop-color:#fff;stop-opacity:0.0705882"/></linearGradient><linearGradient id="_Linear3" x1="0" y1="0" x2="1" y2="0" gradientUnits="userSpaceOnUse" gradientTransform="matrix(8.75109,9.08066,9.08066,-8.75109,49.291,5.09998)"><stop offset="0" style="stop-color:#cafd71;stop-opacity:0.152941"/><stop offset="1" style="stop-color:#fff;stop-opacity:0.152941"/></linearGradient><linearGradient id="_Linear4" x1="0" y1="0" x2="1" y2="0" gradientUnits="userSpaceOnUse" gradientTransform="matrix(4.5834,4.75601,4.75601,-4.5834,67.3736,2.99859)"><stop offset="0" style="stop-color:#cafd71;stop-opacity:0.87451"/><stop offset="1" style="stop-color:#fff;stop-opacity:0.462745"/></linearGradient></defs></svg>