<?xml version="1.0" encoding="UTF-8" standalone="no"?><!DOCTYPE svg PUBLIC "-//W3C//DTD SVG 1.1//EN" "http://www.w3.org/Graphics/SVG/1.1/DTD/svg11.dtd"><svg width="100%" height="100%" viewBox="0 0 69 50" version="1.1" xmlns="http://www.w3.org/2000/svg" xmlns:xlink="http://www.w3.org/1999/xlink" xml:space="preserve" xmlns:serif="http://www.serif.com/" style="fill-rule:evenodd;clip-rule:evenodd;stroke-linejoin:round;stroke-miterlimit:1.5;"><rect x="0.044" y="45.923" width="68.7" height="4.042" style="fill:#31565b;"/><rect x="0" y="0.229" width="68.744" height="45.694" style="fill:url(#_Linear1);"/><circle cx="53.295" cy="9.002" r="6.558" style="fill:url(#_Linear2);"/><circle cx="15.302" cy="15.12" r="15.12" style="fill:url(#_Linear3);"/><path d="M38.832,28.03c1.109,0 2.009,0.827 2.009,1.845l0,0.555l0.008,0l0,8.893l-8.045,0l0,-8.893l0.001,0l0,-0.555c0,-1.018 0.9,-1.845 2.009,-1.845l4.018,0Z" style="fill:#000c38;"/><g><rect x="34.118" y="39.091" width="1.172" height="8.505" style="fill:#000c38;"/><rect x="38.363" y="39.064" width="1.172" height="8.505" style="fill:#000c38;"/></g><g><path d="M34.163,29.803c0.34,-0.197 0.457,-0.633 0.261,-0.974c-0.197,-0.34 -0.633,-0.457 -0.974,-0.261l-2.385,1.378c-0.341,0.196 -0.458,0.632 -0.261,0.973c0.197,0.341 0.633,0.458 0.973,0.261l2.386,-1.377Z" style="fill:#000c38;stroke:#000;stroke-opacity:0;stroke-width:0.2px;"/><path d="M31.75,30.271c-0.278,-0.278 -0.73,-0.278 -1.008,0c-0.278,0.278 -0.278,0.73 0,1.008l0.932,0.931c0.278,0.279 0.73,0.279 1.008,0c0.278,-0.278 0.278,-0.729 0,-1.007l-0.932,-0.932Z" style="fill:#000c38;stroke:#000;stroke-opacity:0;stroke-width:0.2px;"/></g><g><path d="M39.519,29.803c-0.34,-0.197 -0.457,-0.633 -0.261,-0.974c0.197,-0.34 0.633,-0.457 0.974,-0.261l2.385,1.378c0.341,0.196 0.458,0.632 0.261,0.973c-0.197,0.341 -0.633,0.458 -0.973,0.261l-2.386,-1.377Z" style="fill:#000c38;stroke:#000;stroke-opacity:0;stroke-width:0.2px;"/><path d="M41.932,30.271c0.278,-0.278 0.73,-0.278 1.008,0c0.278,0.278 0.278,0.73 0,1.008l-0.932,0.931c-0.278,0.279 -0.73,0.279 -1.008,0c-0.278,-0.278 -0.278,-0.729 0,-1.007l0.932,-0.932Z" style="fill:#000c38;stroke:#000;stroke-opacity:0;stroke-width:0.2px;"/></g><ellipse cx="36.827" cy="24.827" rx="2.2" ry="2.021" style="fill:#000c38;"/><g><g><path d="M23.747,35.553l0,-3.983l-0.485,0l0,3.983l0.485,0Z" style="fill:#3b696f;"/><rect x="23.275" y="31.57" width="2.335" height="0.486" style="fill:#3b696f;"/><rect x="23.262" y="35.1" width="2.335" height="0.486" style="fill:#3b696f;"/><path d="M25.395,31.679l0,3.788l-2.002,0l0,-3.788l2.002,0Zm-0.889,2.712c0.045,0 0.082,-0.037 0.082,-0.082l0,-0.833c0.127,-0.061 0.215,-0.191 0.215,-0.341c0,-0.209 -0.17,-0.379 -0.38,-0.379c-0.209,0 -0.379,0.17 -0.379,0.379c0,0.15 0.088,0.28 0.215,0.341l0,0.833c0,0.045 0.037,0.082 0.082,0.082l0.165,0Z" style="fill:#3b696f;"/></g></g><g><path d="M29.833,47.181l0,-32.318l-1.034,0l0,32.318l1.034,0Z" style="fill:#4e8992;"/><path d="M29.833,47.181l0,-32.318l-0.206,0l0,32.318l0.206,0Z" style="fill:#3b696f;"/></g><g><path d="M26.356,45.832l0,-22.847l-1.035,0l0,22.847l1.035,0Z" style="fill:#4e8992;"/><path d="M26.356,45.832l0,-22.847l-0.206,0l0,22.847l0.206,0Z" style="fill:#3b696f;"/></g><g><path d="M36.788,47.181l0,-32.318l-1.034,0l0,32.318l1.034,0Z" style="fill:#4e8992;"/><path d="M36.788,47.181l0,-32.318l-0.206,0l0,32.318l0.206,0Z" style="fill:#3b696f;"/></g><g><path d="M40.265,47.181l0,-32.318l-1.034,0l0,32.318l1.034,0Z" style="fill:#4e8992;"/><path d="M40.265,47.181l0,-32.318l-0.206,0l0,32.318l0.206,0Z" style="fill:#3b696f;"/></g><g><path d="M43.743,47.181l0,-32.318l-1.034,0l0,32.318l1.034,0Z" style="fill:#4e8992;"/><path d="M43.743,47.181l0,-32.318l-0.206,0l0,32.318l0.206,0Z" style="fill:#3b696f;"/></g><g><path d="M47.22,47.181l0,-32.318l-1.034,0l0,32.318l1.034,0Z" style="fill:#4e8992;"/><path d="M47.22,47.181l0,-32.318l-0.206,0l0,32.318l0.206,0Z" style="fill:#3b696f;"/></g><g><path d="M54.175,47.181l0,-32.318l-1.034,0l0,32.318l1.034,0Z" style="fill:#4e8992;"/><path d="M54.175,47.181l0,-32.318l-0.206,0l0,32.318l0.206,0Z" style="fill:#3b696f;"/></g><g><path d="M57.652,47.181l0,-32.318l-1.034,0l0,32.318l1.034,0Z" style="fill:#4e8992;"/><path d="M57.652,47.181l0,-32.318l-0.206,0l0,32.318l0.206,0Z" style="fill:#3b696f;"/></g><g><path d="M15.923,45.827l0,-22.572l-1.034,0l0,22.572l1.034,0Z" style="fill:#4e8992;"/><path d="M15.923,45.827l0,-22.572l-0.206,0l0,22.572l0.206,0Z" style="fill:#3b696f;"/></g><g><path d="M12.446,47.181l0,-23.926l-1.034,0l0,23.926l1.034,0Z" style="fill:#4e8992;"/><path d="M12.446,47.181l0,-23.926l-0.206,0l0,23.926l0.206,0Z" style="fill:#3b696f;"/></g><g><path d="M19.401,45.841l0,-22.586l-1.034,0l0,22.586l1.034,0Z" style="fill:#4e8992;"/><path d="M19.401,45.841l0,-22.586l-0.206,0l0,22.586l0.206,0Z" style="fill:#3b696f;"/></g><g><path d="M22.878,45.831l0,-22.576l-1.034,0l0,22.576l1.034,0Z" style="fill:#4e8992;"/><path d="M22.878,45.831l0,-22.576l-0.206,0l0,22.576l0.206,0Z" style="fill:#3b696f;"/></g><g><path d="M26.356,14.473l0,8.293l-1.035,0l0,-8.293l1.035,0Z" style="fill:#4e8992;"/><path d="M26.356,14.473l0,8.293l-0.206,0l0,-8.293l0.206,0Z" style="fill:#3b696f;"/></g><g><path d="M15.923,14.525l0,8.241l-1.034,0l0,-8.241l1.034,0Z" style="fill:#4e8992;"/><path d="M15.923,14.525l0,8.241l-0.206,0l0,-8.241l0.206,0Z" style="fill:#3b696f;"/></g><g><path d="M12.446,14.069l0,8.697l-1.034,0l0,-8.697l1.034,0Z" style="fill:#4e8992;"/><path d="M12.446,14.069l0,8.697l-0.206,0l0,-8.697l0.206,0Z" style="fill:#3b696f;"/></g><g><path d="M19.401,14.556l0,8.21l-1.034,0l0,-8.21l1.034,0Z" style="fill:#4e8992;"/><path d="M19.401,14.556l0,8.21l-0.206,0l0,-8.21l0.206,0Z" style="fill:#3b696f;"/></g><g><path d="M22.878,14.544l0,8.222l-1.034,0l0,-8.222l1.034,0Z" style="fill:#4e8992;"/><path d="M22.878,14.544l0,8.222l-0.206,0l0,-8.222l0.206,0Z" style="fill:#3b696f;"/></g><g><path d="M33.311,47.181l0,-32.318l-1.035,0l0,32.318l1.035,0Z" style="fill:#4e8992;"/><path d="M33.311,47.181l0,-32.318l-0.206,0l0,32.318l0.206,0Z" style="fill:#3b696f;"/></g><ellipse cx="32.377" cy="31.899" rx="1.063" ry="0.977" style="fill:#d20e0e;"/><ellipse cx="40.996" cy="31.899" rx="1.063" ry="0.977" style="fill:#d20e0e;"/><g><path d="M50.698,47.181l0,-32.318l-1.035,0l0,32.318l1.035,0Z" style="fill:#4e8992;"/><path d="M50.698,47.181l0,-32.318l-0.206,0l0,32.318l0.206,0Z" style="fill:#3b696f;"/></g><rect x="10.995" y="12.977" width="47.431" height="1.718" style="fill:#3b696f;stroke:#000;stroke-opacity:0;stroke-width:0.2px;"/><rect x="10.995" y="46.068" width="47.431" height="1.718" style="fill:#3b696f;stroke:#000;stroke-opacity:0;stroke-width:0.2px;"/><g><rect x="11.391" y="22.985" width="14.805" height="1.078" style="fill:#3b696f;"/><rect x="11.391" y="22.985" width="14.805" height="0.215" style="fill:#3b696f;"/></g><g><rect x="11.391" y="44.59" width="14.871" height="1.078" style="fill:#3b696f;"/><rect x="11.391" y="44.59" width="14.871" height="0.215" style="fill:#3b696f;"/></g><g><rect x="11.391" y="26.42" width="1.636" height="3.341" style="fill:#3b696f;"/><rect x="11.391" y="26.42" width="1.636" height="0.665" style="fill:#3b696f;"/></g><g><rect x="11.391" y="40.029" width="1.636" height="3.341" style="fill:#3b696f;"/><rect x="11.391" y="40.029" width="1.636" height="0.665" style="fill:#3b696f;"/></g><g><path d="M26.311,45.224l0,-22.155l-0.941,0l0,22.155l0.941,0Z" style="fill:#3b696f;"/><path d="M26.311,45.224l0,-22.155l-0.187,0l0,22.155l0.187,0Z" style="fill:#3b696f;"/></g><defs><linearGradient id="_Linear1" x1="0" y1="0" x2="1" y2="0" gradientUnits="userSpaceOnUse" gradientTransform="matrix(45.8677,60.145,-60.145,45.8677,-6.83599,-10.8711)"><stop offset="0" style="stop-color:#4cc192;stop-opacity:1"/><stop offset="1" style="stop-color:#fefe85;stop-opacity:1"/></linearGradient><linearGradient id="_Linear2" x1="0" y1="0" x2="1" y2="0" gradientUnits="userSpaceOnUse" gradientTransform="matrix(8.75109,9.08066,9.08066,-8.75109,49.291,5.32883)"><stop offset="0" style="stop-color:#cafd71;stop-opacity:0.152941"/><stop offset="1" style="stop-color:#fff;stop-opacity:0.152941"/></linearGradient><linearGradient id="_Linear3" x1="0" y1="0" x2="1" y2="0" gradientUnits="userSpaceOnUse" gradientTransform="matrix(59.4534,59.4534,-59.4534,59.4534,6.07001,6.65109)"><stop offset="0" style="stop-color:#18579f;stop-opacity:0.345098"/><stop offset="0.38" style="stop-color:#fefca7;stop-opacity:0.215686"/><stop offset="1" style="stop-color:#fff;stop-opacity:0.0705882"/></linearGradient></defs></svg>