<?xml version="1.0" encoding="UTF-8" standalone="no"?><!DOCTYPE svg PUBLIC "-//W3C//DTD SVG 1.1//EN" "http://www.w3.org/Graphics/SVG/1.1/DTD/svg11.dtd"><svg width="100%" height="100%" viewBox="0 0 69 50" version="1.1" xmlns="http://www.w3.org/2000/svg" xmlns:xlink="http://www.w3.org/1999/xlink" xml:space="preserve" xmlns:serif="http://www.serif.com/" style="fill-rule:evenodd;clip-rule:evenodd;stroke-linejoin:round;stroke-miterlimit:1.41421;"><rect x="0" y="0" width="68.744" height="45.694" style="fill:url(#_Linear1);"/><circle cx="61.749" cy="6.898" r="6.558" style="fill:url(#_Linear2);"/><circle cx="21.071" cy="8.773" r="6.558" style="fill:url(#_Linear3);"/><circle cx="4.895" cy="4.922" r="3.435" style="fill:url(#_Linear4);"/><path d="M8.13,9.407l9.103,0l1.278,0.415l0,7.076l-10.381,0l0,-7.491Z" style="fill:#3b696f;"/><path d="M42.906,9.404l0.084,0l1.777,0.476l0,36.201l-1.861,0l0,-36.677Z" style="fill:#3b696f;"/><rect x="28.583" y="9.404" width="14.434" height="36.677" style="fill:#4e8992;"/><rect x="34.873" y="16.235" width="1.09" height="1.144" style="fill:#d7ecf1;"/><rect x="30.544" y="11.603" width="1.09" height="1.144" style="fill:#d7ecf1;"/><rect x="39.202" y="19.993" width="1.09" height="1.144" style="fill:#d7ecf1;"/><rect x="34.873" y="11.603" width="1.09" height="1.144" style="fill:#d7ecf1;"/><rect x="34.873" y="29.522" width="1.09" height="1.144" style="fill:#d7ecf1;"/><rect x="39.202" y="29.522" width="1.09" height="1.144" style="fill:#d7ecf1;"/><rect x="34.873" y="34.105" width="1.09" height="1.144" style="fill:#d7ecf1;"/><path d="M0.029,19.415l5.699,0.026l1.261,0.377l0,25.987l-6.96,0l0,-26.39Z" style="fill:#189baf;"/><path d="M14.788,17.458l11.294,0l1.585,0.373l0,28.357l-12.879,0l0,-28.73Z" style="fill:#3b696f;"/><path d="M59.92,9.404l0.084,0l1.777,0.476l0,36.201l-1.861,0l0,-36.677Z" style="fill:#3b696f;"/><rect x="0" y="19.4" width="5.736" height="26.681" style="fill:#4e8992;"/><rect x="45.636" y="9.404" width="14.434" height="36.677" style="fill:#4e8992;"/><rect x="14.4" y="17.351" width="11.608" height="28.73" style="fill:#4e8992;"/><path d="M8.105,9.407l8.899,0l0,7.491l-3.052,0l0,28.233l3.052,0l0,1l-8.899,0l0,-36.724Z" style="fill:#4e8992;"/><rect x="1.191" y="21.56" width="1.1" height="1.1" style="fill:#d7ecf1;"/><rect x="16.186" y="26.35" width="1.1" height="1.1" style="fill:#d7ecf1;"/><rect x="16.186" y="18.95" width="1.1" height="1.1" style="fill:#d7ecf1;"/><rect x="11.033" y="10.968" width="1.1" height="1.1" style="fill:#d7ecf1;"/><rect x="52.624" y="16.235" width="1.09" height="1.144" style="fill:#d7ecf1;"/><rect x="56.953" y="19.993" width="1.09" height="1.144" style="fill:#d7ecf1;"/><rect x="48.295" y="19.993" width="1.09" height="1.144" style="fill:#d7ecf1;"/><rect x="52.624" y="11.603" width="1.09" height="1.144" style="fill:#d7ecf1;"/><rect x="56.953" y="11.603" width="1.09" height="1.144" style="fill:#d7ecf1;"/><rect x="52.624" y="29.522" width="1.09" height="1.144" style="fill:#d7ecf1;"/><rect x="56.953" y="26.603" width="1.09" height="1.144" style="fill:#d7ecf1;"/><rect x="48.295" y="29.522" width="1.09" height="1.144" style="fill:#d7ecf1;"/><rect x="52.624" y="34.105" width="1.09" height="1.144" style="fill:#d7ecf1;"/><path d="M15.818,40.126c0.258,0.001 0.467,0.193 0.467,0.429l0,0.857c0,0.237 -0.209,0.429 -0.467,0.429l-1.665,0c-0.258,0 -0.467,-0.192 -0.467,-0.429l0,-0.857c0,-0.236 0.209,-0.428 0.467,-0.429l1.665,0Zm-0.25,0.258l-1.165,0c-0.18,0 -0.327,0.134 -0.327,0.3l0,0.599c0,0.166 0.147,0.3 0.327,0.3l1.165,0c0.181,0 0.327,-0.134 0.327,-0.3l0,-0.599c0,-0.166 -0.146,-0.3 -0.327,-0.3Z" style="fill:#d52020;"/><path d="M33.231,40.126c0.258,0.001 0.467,0.193 0.467,0.429l0,0.857c0,0.237 -0.209,0.429 -0.467,0.429l-1.665,0c-0.258,0 -0.467,-0.192 -0.467,-0.429l0,-0.857c0,-0.236 0.209,-0.428 0.467,-0.429l1.665,0Zm-0.249,0.258l-1.166,0c-0.18,0 -0.327,0.134 -0.327,0.3l0,0.599c0,0.166 0.147,0.3 0.327,0.3l1.166,0c0.18,0 0.326,-0.134 0.326,-0.3l0,-0.599c0,-0.166 -0.146,-0.3 -0.326,-0.3Z" style="fill:#d52020;"/><rect x="0" y="45.694" width="68.7" height="4.042" style="fill:#31565b;"/><path d="M26.143,27.801c1.109,0 2.009,0.827 2.009,1.845l0,0.555l0.008,0l0,8.893l-8.045,0l0,-8.893l0.001,0l0,-0.555c0,-1.018 0.9,-1.845 2.009,-1.845l4.018,0Z" style="fill:#d20e0e;"/><g><rect x="21.429" y="38.863" width="1.172" height="8.505" style="fill:#b40c0c;"/><rect x="25.673" y="38.835" width="1.172" height="8.505" style="fill:#b40c0c;"/></g><ellipse cx="24.137" cy="24.598" rx="2.2" ry="2.021" style="fill:#d20e0e;"/><g><path d="M9.144,27.801c1.109,0 2.009,0.827 2.009,1.845l0,0.555l0.008,0l0,8.893l-8.045,0l0,-8.893l0.001,0l0,-0.555c0,-1.018 0.9,-1.845 2.009,-1.845l4.018,0Z" style="fill:#d20e0e;"/><g><rect x="4.43" y="38.863" width="1.172" height="8.505" style="fill:#d20e0e;"/><rect x="8.674" y="38.835" width="1.172" height="8.505" style="fill:#d20e0e;"/></g><ellipse cx="7.138" cy="24.598" rx="2.2" ry="2.021" style="fill:#d20e0e;"/></g><path d="M20.051,42.546c0,-0.922 -0.749,-1.671 -1.671,-1.671l-6.789,0c-0.922,0 -1.671,0.749 -1.671,1.671l0,3.341c0,0.922 0.749,1.67 1.671,1.67l6.789,0c0.922,0 1.671,-0.748 1.671,-1.67l0,-3.341Z" style="fill:#d20e0e;"/><path d="M37.464,42.546c0,-0.922 -0.749,-1.671 -1.671,-1.671l-6.789,0c-0.922,0 -1.671,0.749 -1.671,1.671l0,3.341c0,0.922 0.749,1.67 1.671,1.67l6.789,0c0.922,0 1.671,-0.748 1.671,-1.67l0,-3.341Z" style="fill:#d20e0e;"/><rect x="11.958" y="40.875" width="0.517" height="6.682" style="fill:#4c1313;"/><rect x="17.499" y="40.875" width="0.517" height="6.682" style="fill:#4c1313;"/><rect x="29.371" y="40.875" width="0.517" height="6.682" style="fill:#4c1313;"/><rect x="34.912" y="40.875" width="0.517" height="6.682" style="fill:#4c1313;"/><path d="M23.606,29.162l-0.766,-1.06l2.598,0l-0.753,1.044l0.753,5.145l-0.004,0l-1.299,1.799l-1.299,-1.799l0.77,-5.129Z" style="fill:#4c1313;"/><defs><linearGradient id="_Linear1" x1="0" y1="0" x2="1" y2="0" gradientUnits="userSpaceOnUse" gradientTransform="matrix(-0.800781,41.0534,-41.0534,-0.800781,18.0594,4.7517)"><stop offset="0" style="stop-color:#01a99e;stop-opacity:1"/><stop offset="1" style="stop-color:#fefe85;stop-opacity:1"/></linearGradient><linearGradient id="_Linear2" x1="0" y1="0" x2="1" y2="0" gradientUnits="userSpaceOnUse" gradientTransform="matrix(-8.75109,9.08066,-9.08066,-8.75109,65.7535,3.22438)"><stop offset="0" style="stop-color:#fdfa71;stop-opacity:0.305882"/><stop offset="0.38" style="stop-color:#fefca7;stop-opacity:0.215686"/><stop offset="1" style="stop-color:#fff;stop-opacity:0.0705882"/></linearGradient><linearGradient id="_Linear3" x1="0" y1="0" x2="1" y2="0" gradientUnits="userSpaceOnUse" gradientTransform="matrix(-8.75109,9.08066,-9.08066,-8.75109,25.0753,5.09998)"><stop offset="0" style="stop-color:#cafd71;stop-opacity:0.152941"/><stop offset="1" style="stop-color:#fff;stop-opacity:0.152941"/></linearGradient><linearGradient id="_Linear4" x1="0" y1="0" x2="1" y2="0" gradientUnits="userSpaceOnUse" gradientTransform="matrix(-4.5834,4.75601,-4.75601,-4.5834,6.99268,2.99859)"><stop offset="0" style="stop-color:#cafd71;stop-opacity:0"/><stop offset="1" style="stop-color:#fff;stop-opacity:0.462745"/></linearGradient></defs></svg>